# xmcd CD database file generated by Grip 2.5
# 
# Track frame offsets:
#       182
#       10822
#       25322
#       37102
#       53105
#       66742
#       76962
#       92642
#       105185
#       117865
#       131195
#       141620
#       159600
#       172042
#       181700
#       194417
#       203440
#       218042
#       231400
#       244737
# 
# Disc length: 3496 seconds
# 
# Revision: 3
# Processed by: cddbd v1.4b41PL1 Copyright (c) Steve Scherf et al.
# Submitted via: Grip 2.5
# 
DISCID=1e0da614
DTITLE=Various Artist - 20 Great Truck Drivin' Hits - On The Road Again
DYEAR=1900
DGENRE=
TTITLE0=Six Days On The Road - Dave Dudley
TTITLE1=I'm A Truck - Red Simpson
TTITLE2=Give Me Forty Acres - Willis Brothers
TTITLE3=C.B. Savage - Rod Hart
TTITLE4=Endless Black Ribbon - Tiny Harris
TTITLE5=40 Miles Of Bad Road - Duane Eddy
TTITLE6=Man Behind The Wheel - George Morgan
TTITLE7=How Fast Them Trucks Can Go - Claude Gray
TTITLE8=Widow Maker - Jimmy Martin
TTITLE9=California Turn Arounds - Jack Greene
TTITLE10=Looking At The World Thru A Windshield - Del Reeves
TTITLE11=Gear Jammer and The Hobo - Johnny Bond and Red Sovine
TTITLE12=Roll, Truck, Roll - Red Simpson
TTITLE13=Truck Driver's Queen - Moore 7 Napier
TTITLE14=Passing Zone Blues - Coleman Wilson
TTITLE15=Truck Stop Cutie - Willis Brothers
TTITLE16=Wheres The Truck - Charlie Douglas and Dave Dudley
TTITLE17=Rolaids, Doan's Pills and Preparation H - Dave Dudley
TTITLE18=Jackson - Red Sovine and Jean Shepard
TTITLE19=Convoy - Tommy Hill Music Festival
EXTD=
EXTT0=
EXTT1=
EXTT2=
EXTT3=
EXTT4=
EXTT5=
EXTT6=
EXTT7=
EXTT8=
EXTT9=
EXTT10=
EXTT11=
EXTT12=
EXTT13=
EXTT14=
EXTT15=
EXTT16=
EXTT17=
EXTT18=
EXTT19=
PLAYORDER=
